<svg xmlns="http://www.w3.org/2000/svg" width="216" height="36" viewBox="0 0 216 36">
<path fill="#FFFFFF" d="M73.21,7.44h2.88V27h-2.88V7.44z M42.84,20.9c0,3.85-3,6.68-6.68,6.68s-6.68-2.84-6.68-6.68
c0-3.87,3-6.69,6.68-6.69S42.84,17.03,42.84,20.9z M39.92,20.9c0-2.4-1.74-4.05-3.76-4.05s-3.76,1.65-3.76,4.05
c0,2.38,1.74,4.05,3.76,4.05S39.92,23.28,39.92,20.9z M57.43,20.93c0,3.85-3,6.68-6.68,6.68s-6.68-2.83-6.68-6.68
c0-3.87,3-6.68,6.68-6.68S57.43,17.05,57.43,20.93z M54.5,20.93c0-2.4-1.74-4.05-3.76-4.05c-2.02,0-3.76,1.65-3.76,4.05
c0,2.38,1.74,4.05,3.76,4.05C52.77,24.98,54.5,23.3,54.5,20.93z M68.67,14.77h2.78v11.88c0,4.93-2.91,6.96-6.35,6.96
c-3.24,0-5.19-2.18-5.92-3.95l2.55-1.06c0.46,1.09,1.57,2.38,3.37,2.38c2.21,0,3.57-1.37,3.57-3.93v-0.96h-0.1
c-0.66,0.8-1.92,1.52-3.52,1.52c-3.34,0-6.4-2.91-6.4-6.66c0-3.77,3.06-6.71,6.4-6.71c1.59,0,2.86,0.71,3.52,1.49h0.1V14.77z
M68.87,20.95c0-2.36-1.57-4.08-3.57-4.08c-2.02,0-3.72,1.72-3.72,4.08c0,2.33,1.7,4.02,3.72,4.02
C67.3,24.98,68.87,23.28,68.87,20.95z M18.5,24.68c-4.19,0-7.47-3.38-7.47-7.57s3.28-7.57,7.47-7.57c2.26,0,3.91,0.89,5.13,2.03
l2.01-2.01c-1.7-1.63-3.97-2.87-7.14-2.87c-5.74,0-10.57,4.68-10.57,10.42s4.83,10.42,10.57,10.42c3.1,0,5.44-1.02,7.27-2.92
c1.88-1.88,2.46-4.52,2.46-6.66c0-0.67-0.08-1.36-0.17-1.87H18.5v2.78h6.81c-0.2,1.74-0.75,2.93-1.56,3.74
C22.77,23.59,21.22,24.68,18.5,24.68z M87.44,23.13l2.28,1.52c-0.74,1.09-2.51,2.96-5.57,2.96c-3.8,0-6.63-2.94-6.63-6.68
c0-3.98,2.86-6.68,6.31-6.68c3.47,0,5.17,2.76,5.72,4.25l0.3,0.76l-8.94,3.7c0.68,1.34,1.74,2.02,3.24,2.02S86.69,24.24,87.44,23.13
z M80.43,20.72l5.97-2.48c-0.33-0.83-1.31-1.42-2.48-1.42C82.43,16.82,80.36,18.14,80.43,20.72z"/>
<path fill="#FFFFFF" d="M95.96,27h5.46c5.56,0,9.05-3.69,9.05-8.92c0-5.21-3.49-8.92-9.05-8.92h-5.46
V27z M98.25,24.81V11.35h3.17c4.09,0,6.71,2.47,6.71,6.73c0,4.29-2.62,6.73-6.71,6.73H98.25z M118.12,27.4
c2.82,0,4.61-1.6,5.33-3.34l-2.04-0.85c-0.65,1.55-1.99,2.09-3.34,2.09c-1.89,0-3.76-1.4-3.89-3.99h9.65c0,0,0.02-0.25,0.02-0.42
c0-3.94-2.34-6.51-5.98-6.51c-3.59,0-5.98,3.04-5.98,6.51C111.88,24.58,114.38,27.4,118.12,27.4z M121.41,19.42h-7.08
c0.45-1.79,1.79-2.94,3.49-2.94C120.43,16.48,121.33,18.35,121.41,19.42z M129.33,27h2.29l4.99-12.21h-2.44l-3.64,9.47h-0.05
l-3.59-9.47h-2.49L129.33,27z M143.39,27.4c2.82,0,4.61-1.6,5.33-3.34l-2.04-0.85c-0.65,1.55-1.99,2.09-3.34,2.09
c-1.89,0-3.76-1.4-3.89-3.99h9.65c0,0,0.02-0.25,0.02-0.42c0-3.94-2.34-6.51-5.98-6.51c-3.59,0-5.98,3.04-5.98,6.51
C137.16,24.58,139.65,27.4,143.39,27.4z M146.68,19.42h-7.08c0.45-1.79,1.79-2.94,3.49-2.94C145.71,16.48,146.61,18.35,146.68,19.42
z M153.51,27V9.15h-2.29V27H153.51z M161.76,14.39c-3.66,0-6.28,2.79-6.28,6.51s2.62,6.51,6.28,6.51c3.66,0,6.28-2.79,6.28-6.51
S165.43,14.39,161.76,14.39z M161.76,25.3c-2.04,0-3.99-1.62-3.99-4.41s1.94-4.41,3.99-4.41s3.99,1.62,3.99,4.41
S163.81,25.3,161.76,25.3z M176.47,27.4c3.09,0,5.81-2.77,5.81-6.51s-2.72-6.51-5.81-6.51c-1.94,0-3.46,0.97-4.16,2.09h-0.1v-1.69
h-2.19v17.6h2.29V27l-0.1-1.69h0.1C173,26.43,174.52,27.4,176.47,27.4z M176.09,25.3c-2.04,0-3.89-1.62-3.89-4.41
s1.84-4.41,3.89-4.41c2.04,0,3.89,1.67,3.89,4.41S178.14,25.3,176.09,25.3z M189.9,27.4c2.82,0,4.61-1.6,5.33-3.34l-2.04-0.85
c-0.65,1.55-1.99,2.09-3.34,2.09c-1.89,0-3.76-1.4-3.89-3.99h9.65c0,0,0.02-0.25,0.02-0.42c0-3.94-2.34-6.51-5.98-6.51
c-3.59,0-5.98,3.04-5.98,6.51C183.67,24.58,186.16,27.4,189.9,27.4z M193.19,19.42h-7.08c0.45-1.79,1.79-2.94,3.49-2.94
C192.22,16.48,193.12,18.35,193.19,19.42z M200.02,27v-6.68c0-2.24,1.6-3.56,3.17-3.56c0.5,0,0.9,0.05,1.22,0.17l0.87-2.14
c-0.47-0.2-0.97-0.3-1.72-0.3c-1.27,0-3.04,0.9-3.54,2.29h-0.1v-1.99h-2.19V27H200.02z M211.19,27.4c2.87,0,4.81-1.67,4.81-3.84
c0-1.5-0.95-2.99-3.36-3.56l-2.42-0.57c-0.97-0.22-1.62-0.65-1.62-1.42c0-1,1.12-1.57,2.42-1.57c1.2,0,2.32,0.47,2.79,1.62
l1.99-0.82c-0.75-1.87-2.59-2.84-4.71-2.84c-2.54,0-4.84,1.42-4.84,3.64c0,2.14,2.14,3.12,3.27,3.39l2.47,0.6
c1.3,0.32,1.67,1,1.67,1.62c0,1.02-1.02,1.72-2.44,1.72c-1.47,0-2.67-0.75-3.32-2.29l-2.04,0.85
C206.58,25.65,208.25,27.4,211.19,27.4z"/>
</svg>